<svg id="Layer_1" data-name="Layer 1" xmlns="http://www.w3.org/2000/svg" viewBox="0 0 300 300"><defs><style>.cls-1{fill:#00d09f;}</style></defs><path class="cls-1" d="M95.38,138.39a20.31,20.31,0,0,1-17.59-10.22L64,104a20.26,20.26,0,0,1,.18-20.35L78.77,59.14a20.33,20.33,0,0,1,17.38-9.92l28.55,0h0a20.31,20.31,0,0,1,17.59,10.22l13.77,24.15a20.26,20.26,0,0,1-.18,20.35l-14.56,24.55a20.37,20.37,0,0,1-17.39,9.9l-28.54,0Zm29.35-77.08h0l-28.54,0a8.17,8.17,0,0,0-7,4L74.64,89.86A8.07,8.07,0,0,0,74.57,98l13.77,24.15a8.19,8.19,0,0,0,3,3,8.1,8.1,0,0,0,4.07,1.1h0l28.54,0a8.15,8.15,0,0,0,7-4l14.57-24.53a8.09,8.09,0,0,0,.07-8.16L131.77,65.4a8.13,8.13,0,0,0-7-4.09Z"/><path class="cls-1" d="M190.24,193.07a20.3,20.3,0,0,1-17.59-10.21l-13.77-24.15a20.28,20.28,0,0,1,.18-20.36l14.57-24.53A20.35,20.35,0,0,1,191,103.91l28.54,0h0a20.25,20.25,0,0,1,17.59,10.22L251,138.23a20.26,20.26,0,0,1-.18,20.35L236.2,183.11A20.35,20.35,0,0,1,218.81,193l-28.54,0ZM219.58,116h0L191,116a8.15,8.15,0,0,0-7,4l-14.58,24.53a8.1,8.1,0,0,0-1.13,4.07,8.2,8.2,0,0,0,1.06,4.08l13.78,24.16a8.09,8.09,0,0,0,7,4.08h0l28.55,0a8.15,8.15,0,0,0,7-4l14.57-24.53a8.13,8.13,0,0,0,.07-8.15l-13.77-24.15a8.13,8.13,0,0,0-7-4.09Z"/><path class="cls-1" d="M94.42,247.58a20.3,20.3,0,0,1-17.6-10.21L63.05,213.22a20.28,20.28,0,0,1,.18-20.36L77.8,168.33a20.35,20.35,0,0,1,17.39-9.91l28.54,0h0a20.3,20.3,0,0,1,17.59,10.21l13.77,24.15a20.26,20.26,0,0,1-.18,20.35l-14.57,24.53A20.35,20.35,0,0,1,123,247.53l-28.54,0Zm29.34-77.07-28.54,0a8.12,8.12,0,0,0-7,4L73.68,199.05a8.11,8.11,0,0,0-.07,8.14l13.76,24.16a8.13,8.13,0,0,0,7,4.09l28.54,0a8.15,8.15,0,0,0,7-4l14.57-24.53a8.13,8.13,0,0,0,.07-8.15L130.8,174.61a8.11,8.11,0,0,0-7-4.1Z"/></svg>